# xmcd
#
# Track frame offsets: 
#        150
#        18728
#        37077
#        52252
#        66090
#        78384
#        92082
#        109064
#        122702
#        138300
#        153338
#        165731
#        182625
#        201766
#        216104
#        231687
#        244413
#        262024
#
# Disc length: 3777 seconds
#
# Revision: 0
# Processed by: cddbd v1.5.1PL2 Copyright (c) Steve Scherf et al.
# Submitted via: ExactAudioCopy v0.95b2
#
DISCID=100ebf12
DTITLE=Various Artist - Promo Only Country Radio Aug 2005
DYEAR=2005
DGENRE=Country
TTITLE0=Brad Paisley - Alohol
TTITLE1=Gary Allan - Best I've Ever Had
TTITLE2=Billy Dean - Race You To The Bottom
TTITLE3=Shelly Fairchild - Kiss Me
TTITLE4=Matt Jenkins - King Of The Castle
TTITLE5=Jeff Bates - Good People
TTITLE6=Carrie Underwood - Inside Your Heaven
TTITLE7=Erika Jo - I Break Things
TTITLE8=Lisa Brokop - Big Picture
TTITLE9=Mark Chesnutt - A Hard Secret To Keep
TTITLE10=Aaron Tippin - Come Friday
TTITLE11=Randy Travis - Angels
TTITLE12=Carolyn Dawn Johnson - Dress Rehearsal
TTITLE13=Tracy Lawrence - Used To The Pain
TTITLE14=Brice Long - It's Only Monday
TTITLE15=David Ball - Too Much Blood In My Alcohol Level
TTITLE16=Lila McCann - I Can Do This
TTITLE17=Kacey Jones - Down At The Piggly Wiggly
EXTD=
EXTT0=
EXTT1=
EXTT2=
EXTT3=
EXTT4=
EXTT5=
EXTT6=
EXTT7=
EXTT8=
EXTT9=
EXTT10=
EXTT11=
EXTT12=
EXTT13=
EXTT14=
EXTT15=
EXTT16=
EXTT17=
PLAYORDER=
